<?xml version="1.0" encoding="utf-8"?>
<!-- Generator: Adobe Illustrator 23.1.0, SVG Export Plug-In . SVG Version: 6.00 Build 0)  -->
<svg version="1.1" id="Layer_1" xmlns="http://www.w3.org/2000/svg" xmlns:xlink="http://www.w3.org/1999/xlink" x="0px" y="0px"
	 viewBox="0 0 238 78" style="enable-background:new 0 0 238 78;" xml:space="preserve">
<style type="text/css">
	.st0{fill-rule:evenodd;clip-rule:evenodd;fill:#EA9F22;}
</style>
<path class="st0" d="M138.01,37.85l-21.4,11.2c0.91,1.9,1,4.18-2.55,4.62l-21.34,0.09l-16.18,8.1l62.31-0.03l15.51-8
	c2.25-1.77,1.18-4.5-0.76-6.45L138.01,37.85"/>
<path class="st0" d="M134.79,35.63l-8.39-5.9c-2.1-2.2,0.78-5.22,2.04-5.24l29.81-0.04l13.97-7.95l-61.81-0.05l-17.31,8.15
	c-3.19,1.5-4.53,6.62-0.79,8.2l21.98,13.71C114.3,46.52,133.09,36.55,134.79,35.63z"/>
<path class="st0" d="M226.06,20.6L201.3,33.33c5.29,11.42-4.77,18.65-19.21,20.44l-15.3-0.05l-15.88,8.14l56.24-0.09
	C233.99,58.68,248.71,33.87,226.06,20.6z"/>
<path class="st0" d="M185.6,24.46c7.6-0.02,12.34,3.32,13.86,6.39l23.46-12.08c-2.39-1.16-9.34-2.47-17.17-2.43l-22.11,0.1
	L169.7,24.5L185.6,24.46z"/>
<path class="st0" d="M66.38,16.31L4.91,47.78l-0.55,1.93L0.81,61.99l23.79-0.11l5.31-17.97l8.89,0.27c2.61,1.21,3.6,2.94,3.25,5.1
	l-0.81,5.68c-0.12,3.49,1.19,6.94,5.93,6.92l17.47-0.1l16.02-8.04l-14.57-0.03c-3.19,0.45-3.15-0.71-3.06-2.16l0.82-12.86
	c-0.1-3.51-3.82-4.08-7.83-4.21l37.86-18.05L66.38,16.31z"/>
<polygon class="st0" points="33.95,29.45 37.74,16.47 14.48,16.44 5.56,44.1 "/>
</svg>
